<svg width="24" height="24" viewBox="0 0 24 24" fill="none" xmlns="http://www.w3.org/2000/svg">
<path fill-rule="evenodd" clip-rule="evenodd" d="M12 24C18.6274 24 24 18.6274 24 12C24 5.37258 18.6274 0 12 0C5.37258 0 0 5.37258 0 12C0 18.6274 5.37258 24 12 24ZM16.3071 7.69289C16.6976 8.08342 16.6976 8.71658 16.3071 9.10711L13.4142 12L16.3071 14.8929C16.6976 15.2834 16.6976 15.9166 16.3071 16.3071C15.9166 16.6976 15.2834 16.6976 14.8929 16.3071L12 13.4142L9.1071 16.3071C8.71658 16.6976 8.08341 16.6976 7.69289 16.3071C7.30236 15.9166 7.30236 15.2834 7.69289 14.8929L10.5858 12L7.69289 9.10711C7.30236 8.71658 7.30236 8.08342 7.69289 7.69289C8.08341 7.30237 8.71658 7.30237 9.1071 7.69289L12 10.5858L14.8929 7.69289C15.2834 7.30237 15.9166 7.30237 16.3071 7.69289Z" fill="#E3E3E3"/>
</svg>
