<svg width="236" height="199" viewBox="0 0 236 199" fill="none" xmlns="http://www.w3.org/2000/svg">
<path d="M12.41 141.338C-7.10648 162.026 0.588669 188.399 7.33637 199H148.748C182.431 199 171.185 146.055 148.748 146.055C139.564 146.055 133.523 151.297 111.895 110.06C90.2681 68.8227 51.339 90.1403 46.6675 117.748C41.9961 145.356 36.8055 115.477 12.41 141.338Z" fill="#FFCF5B"/>
<path d="M126.583 55.1169C127.82 83.8681 121.43 108.141 114.531 118.065C82.0279 152.455 94.6728 198.755 107.958 198.755C142.665 198.755 181.255 199.306 212.164 198.755C239.432 198.269 243.559 87.6765 223.229 32.9919C202.9 -21.6927 124.027 -4.30695 126.583 55.1169Z" fill="#FF82B8"/>
<circle cx="79" cy="105" r="2" fill="#262626"/>
<circle cx="134" cy="73" r="2" fill="#262626"/>
<circle cx="91" cy="105" r="2" fill="#262626"/>
<circle cx="146" cy="73" r="2" fill="#262626"/>
<path d="M82 107C82.3 108.2 83.8 109 85 109C86.2 109 87.7 108.2 88 107" stroke="#262626" stroke-linecap="round"/>
<path d="M137 75C137.3 76.2 138.8 77 140 77C141.2 77 142.7 76.2 143 75" stroke="#262626" stroke-linecap="round"/>
<path d="M137.5 41C143 20.5 160.5 9 178.5 9" stroke="#FFB1D3" stroke-width="8" stroke-linecap="round"/>
<path d="M15.5 154C17.6667 149.167 24.2 139.5 33 139.5C44 139.5 53 140.5 55 126C56.6 114.4 61.6667 105.833 64 103" stroke="#FFE4A5" stroke-width="8" stroke-linecap="round"/>
</svg>
