<svg width="95" height="39" viewBox="0 0 95 39" fill="none" xmlns="http://www.w3.org/2000/svg">
<path d="M16.0651 6.55482C17.4866 6.55482 18.6125 6.97455 19.4429 7.81401C20.2873 8.63948 20.7095 9.88468 20.7095 11.5496V18.0135H17.4162V12.0533C17.4162 11.1579 17.2262 10.4933 16.8462 10.0596C16.4803 9.61186 15.9525 9.388 15.2629 9.388C14.4888 9.388 13.8766 9.63984 13.4262 10.1435C12.9758 10.6332 12.7506 11.3677 12.7506 12.3471V18.0135H9.45731V12.0533C9.45731 10.2764 8.73953 9.388 7.30398 9.388C6.54398 9.388 5.93879 9.63984 5.48842 10.1435C5.03805 10.6332 4.81286 11.3677 4.81286 12.3471V18.0135H1.51953V6.72271H4.66509V8.02388C5.08731 7.54818 5.60101 7.18441 6.2062 6.93258C6.82546 6.68074 7.50101 6.55482 8.23286 6.55482C9.03509 6.55482 9.7599 6.71571 10.4073 7.03751C11.0547 7.34531 11.5755 7.80002 11.9695 8.40163C12.434 7.81401 13.0181 7.3593 13.7218 7.03751C14.4395 6.71571 15.2206 6.55482 16.0651 6.55482ZM34.9108 12.4101C34.9108 12.452 34.8897 12.7458 34.8475 13.2915H26.2552C26.4101 13.991 26.776 14.5437 27.353 14.9494C27.9301 15.3552 28.6478 15.558 29.5064 15.558C30.0975 15.558 30.6182 15.4741 31.0686 15.3062C31.533 15.1243 31.9623 14.8445 32.3564 14.4667L34.1086 16.3555C33.0389 17.5728 31.4767 18.1814 29.4219 18.1814C28.1412 18.1814 27.0082 17.9365 26.023 17.4468C25.0378 16.9432 24.2778 16.2506 23.743 15.3692C23.2082 14.4877 22.9408 13.4874 22.9408 12.3681C22.9408 11.2628 23.2012 10.2694 23.7219 9.388C24.2567 8.49258 24.9815 7.80002 25.8964 7.31033C26.8252 6.80666 27.8597 6.55482 28.9997 6.55482C30.1115 6.55482 31.1178 6.79267 32.0186 7.26836C32.9193 7.74406 33.623 8.42962 34.1297 9.32504C34.6504 10.2065 34.9108 11.2348 34.9108 12.4101ZM29.0208 9.03123C28.2749 9.03123 27.6486 9.2411 27.1419 9.66083C26.6352 10.0806 26.3256 10.6542 26.213 11.3817H31.8075C31.6949 10.6682 31.3852 10.1015 30.8786 9.68181C30.3719 9.24809 29.7527 9.03123 29.0208 9.03123ZM44.0067 6.55482C45.4141 6.55482 46.5471 6.97455 47.4056 7.81401C48.2782 8.65347 48.7145 9.89867 48.7145 11.5496V18.0135H45.4211V12.0533C45.4211 11.1579 45.2241 10.4933 44.83 10.0596C44.436 9.61186 43.866 9.388 43.12 9.388C42.2897 9.388 41.6282 9.64683 41.1356 10.1645C40.643 10.6682 40.3967 11.4237 40.3967 12.4311V18.0135H37.1034V6.72271H40.2489V8.04486C40.6852 7.56917 41.2271 7.2054 41.8745 6.95356C42.5219 6.68773 43.2326 6.55482 44.0067 6.55482ZM59.0251 17.4678C58.7014 17.7057 58.3003 17.8876 57.8218 18.0135C57.3574 18.1254 56.8648 18.1814 56.344 18.1814C54.9929 18.1814 53.9444 17.8386 53.1985 17.153C52.4666 16.4675 52.1007 15.4601 52.1007 14.131V9.49293H50.3485V6.97455H52.1007V4.22531H55.394V6.97455H58.2229V9.49293H55.394V14.089C55.394 14.5647 55.5137 14.9354 55.7529 15.2013C56.0063 15.4531 56.3581 15.579 56.8085 15.579C57.3292 15.579 57.7725 15.4391 58.1385 15.1593L59.0251 17.4678Z" fill="#262626"/>
<path d="M30.4066 36.1948C29.1962 36.1948 28.1055 35.9499 27.1344 35.4602C26.1773 34.9566 25.4244 34.264 24.8755 33.3826C24.3406 32.5011 24.0732 31.5008 24.0732 30.3815C24.0732 29.2622 24.3406 28.2618 24.8755 27.3804C25.4244 26.499 26.1773 25.8134 27.1344 25.3237C28.1055 24.8201 29.1962 24.5682 30.4066 24.5682C31.6029 24.5682 32.6444 24.8201 33.531 25.3237C34.4318 25.8134 35.0862 26.52 35.4944 27.4434L32.9399 28.8075C32.3488 27.7722 31.4973 27.2545 30.3855 27.2545C29.5269 27.2545 28.8162 27.5343 28.2532 28.094C27.6903 28.6536 27.4088 29.4161 27.4088 30.3815C27.4088 31.3469 27.6903 32.1094 28.2532 32.669C28.8162 33.2287 29.5269 33.5085 30.3855 33.5085C31.5114 33.5085 32.3629 32.9908 32.9399 31.9555L35.4944 33.3406C35.0862 34.236 34.4318 34.9356 33.531 35.4392C32.6444 35.9429 31.6029 36.1948 30.4066 36.1948ZM48.3718 30.4235C48.3718 30.4654 48.3507 30.7592 48.3084 31.3049H39.7162C39.871 32.0044 40.237 32.5571 40.814 32.9628C41.391 33.3686 42.1088 33.5714 42.9673 33.5714C43.5584 33.5714 44.0792 33.4875 44.5296 33.3196C44.994 33.1377 45.4233 32.8579 45.8173 32.4801L47.5696 34.3689C46.4999 35.5862 44.9377 36.1948 42.8829 36.1948C41.6021 36.1948 40.4692 35.9499 39.484 35.4602C38.4988 34.9566 37.7388 34.264 37.204 33.3826C36.6692 32.5011 36.4018 31.5008 36.4018 30.3815C36.4018 29.2762 36.6621 28.2828 37.1829 27.4014C37.7177 26.506 38.4425 25.8134 39.3573 25.3237C40.2862 24.8201 41.3207 24.5682 42.4607 24.5682C43.5725 24.5682 44.5788 24.8061 45.4796 25.2818C46.3803 25.7575 47.084 26.443 47.5907 27.3384C48.1114 28.2199 48.3718 29.2482 48.3718 30.4235ZM42.4818 27.0446C41.7359 27.0446 41.1096 27.2545 40.6029 27.6742C40.0962 28.094 39.7866 28.6676 39.674 29.3951H45.2684C45.1558 28.6816 44.8462 28.1149 44.3396 27.6952C43.8329 27.2615 43.2136 27.0446 42.4818 27.0446ZM57.4677 24.5682C58.8751 24.5682 60.008 24.9879 60.8666 25.8274C61.7392 26.6669 62.1754 27.9121 62.1754 29.563V36.0269H58.8821V30.0667C58.8821 29.1713 58.6851 28.5067 58.291 28.073C57.8969 27.6253 57.3269 27.4014 56.581 27.4014C55.7506 27.4014 55.0892 27.6602 54.5966 28.1779C54.104 28.6816 53.8577 29.4371 53.8577 30.4444V36.0269H50.5643V24.7361H53.7099V26.0583C54.1462 25.5826 54.688 25.2188 55.3354 24.967C55.9829 24.7011 56.6936 24.5682 57.4677 24.5682ZM72.4863 35.4812C72.1626 35.7191 71.7615 35.901 71.283 36.0269C70.8185 36.1388 70.3259 36.1948 69.8052 36.1948C68.4541 36.1948 67.4056 35.852 66.6596 35.1664C65.9278 34.4809 65.5618 33.4735 65.5618 32.1444V27.5063H63.8096V24.9879H65.5618V22.2387H68.8552V24.9879H71.6841V27.5063H68.8552V32.1024C68.8552 32.5781 68.9748 32.9488 69.2141 33.2147C69.4674 33.4665 69.8193 33.5924 70.2696 33.5924C70.7904 33.5924 71.2337 33.4525 71.5996 33.1727L72.4863 35.4812ZM85.11 30.4235C85.11 30.4654 85.0889 30.7592 85.0467 31.3049H76.4545C76.6093 32.0044 76.9752 32.5571 77.5522 32.9628C78.1293 33.3686 78.8471 33.5714 79.7056 33.5714C80.2967 33.5714 80.8174 33.4875 81.2678 33.3196C81.7323 33.1377 82.1615 32.8579 82.5556 32.4801L84.3078 34.3689C83.2382 35.5862 81.676 36.1948 79.6211 36.1948C78.3404 36.1948 77.2074 35.9499 76.2223 35.4602C75.2371 34.9566 74.4771 34.264 73.9423 33.3826C73.4074 32.5011 73.14 31.5008 73.14 30.3815C73.14 29.2762 73.4004 28.2828 73.9211 27.4014C74.456 26.506 75.1808 25.8134 76.0956 25.3237C77.0245 24.8201 78.0589 24.5682 79.1989 24.5682C80.3108 24.5682 81.3171 24.8061 82.2178 25.2818C83.1185 25.7575 83.8223 26.443 84.3289 27.3384C84.8497 28.2199 85.11 29.2482 85.11 30.4235ZM79.22 27.0446C78.4741 27.0446 77.8478 27.2545 77.3411 27.6742C76.8345 28.094 76.5248 28.6676 76.4123 29.3951H82.0067C81.8941 28.6816 81.5845 28.1149 81.0778 27.6952C80.5711 27.2615 79.9519 27.0446 79.22 27.0446ZM90.4482 26.2262C90.8422 25.6805 91.37 25.2678 92.0315 24.9879C92.707 24.7081 93.4811 24.5682 94.3537 24.5682V27.5903C93.9878 27.5623 93.7415 27.5483 93.6148 27.5483C92.6719 27.5483 91.933 27.8141 91.3981 28.3458C90.8633 28.8635 90.5959 29.647 90.5959 30.6963V36.0269H87.3026V24.7361H90.4482V26.2262Z" fill="#262626"/>
<path d="M76.795 8.21275C77.189 7.6671 77.7168 7.25436 78.3783 6.97454C79.0539 6.69472 79.8279 6.55481 80.7005 6.55481V9.57687C80.3346 9.54889 80.0883 9.5349 79.9616 9.5349C79.0187 9.5349 78.2798 9.80073 77.745 10.3324C77.2102 10.8501 76.9427 11.6336 76.9427 12.6829V18.0135H73.6494V6.7227H76.795V8.21275Z" fill="#262626"/>
<mask id="mask0" mask-type="alpha" maskUnits="userSpaceOnUse" x="59" y="5" width="14" height="14">
<path fill-rule="evenodd" clip-rule="evenodd" d="M65.9719 18.0135C69.3725 18.0135 72.1293 15.273 72.1293 11.8924C72.1293 8.51179 69.3725 5.7713 65.9719 5.7713C62.5712 5.7713 59.8145 8.51179 59.8145 11.8924C59.8145 15.273 62.5712 18.0135 65.9719 18.0135ZM63.9369 12.5373C63.7123 12.1091 63.181 11.943 62.7501 12.1664C62.3195 12.3898 62.1525 12.918 62.3772 13.3461C62.9178 14.3764 64.0756 15.2992 65.427 15.5168C66.8742 15.7499 68.4016 15.1566 69.5268 13.4141C69.7893 13.0077 69.6707 12.4668 69.2619 12.2059C68.8532 11.9449 68.3089 12.0629 68.0466 12.4693C67.2554 13.6942 66.3871 13.8998 65.7083 13.7905C64.9337 13.6657 64.2348 13.1048 63.9369 12.5373Z" fill="white"/>
</mask>
<g mask="url(#mask0)">
<path fill-rule="evenodd" clip-rule="evenodd" d="M65.9719 18.0135C69.3725 18.0135 72.1293 15.273 72.1293 11.8924C72.1293 8.51179 69.3725 5.7713 65.9719 5.7713C62.5712 5.7713 59.8145 8.51179 59.8145 11.8924C59.8145 15.273 62.5712 18.0135 65.9719 18.0135ZM63.9369 12.5373C63.7123 12.1091 63.181 11.943 62.7501 12.1664C62.3195 12.3898 62.1525 12.918 62.3772 13.3461C62.9178 14.3764 64.0756 15.2992 65.427 15.5168C66.8742 15.7499 68.4016 15.1566 69.5268 13.4141C69.7893 13.0077 69.6707 12.4668 69.2619 12.2059C68.8532 11.9449 68.3089 12.0629 68.0466 12.4693C67.2554 13.6942 66.3871 13.8998 65.7083 13.7905C64.9337 13.6657 64.2348 13.1048 63.9369 12.5373Z" fill="#262626"/>
<path d="M62.7501 12.1664L61.1228 9.06523L62.7501 12.1664ZM63.9369 12.5373L60.8174 14.155L63.9369 12.5373ZM62.3771 13.3461L65.4967 11.7284L62.3771 13.3461ZM65.427 15.5168L64.8642 18.9696L65.427 15.5168ZM69.5268 13.4141L66.5661 11.5244L69.5268 13.4141ZM69.2618 12.2058L71.1629 9.26252L69.2618 12.2058ZM68.0465 12.4692L65.0857 10.5795L68.0465 12.4692ZM65.7083 13.7904L65.1455 17.2432L65.7083 13.7904ZM68.6107 11.8924C68.6107 13.3412 67.4292 14.5157 65.9718 14.5157V21.5112C71.3158 21.5112 75.6478 17.2047 75.6478 11.8924H68.6107ZM65.9718 9.26904C67.4292 9.26904 68.6107 10.4435 68.6107 11.8924H75.6478C75.6478 6.58002 71.3158 2.27353 65.9718 2.27353V9.26904ZM63.3329 11.8924C63.3329 10.4435 64.5145 9.26904 65.9718 9.26904V2.27353C60.6279 2.27353 56.2959 6.58002 56.2959 11.8924H63.3329ZM65.9718 14.5157C64.5145 14.5157 63.3329 13.3412 63.3329 11.8924H56.2959C56.2959 17.2047 60.6279 21.5112 65.9718 21.5112V14.5157ZM64.3776 15.2676C63.0854 15.9377 61.4913 15.4395 60.8174 14.155L67.0564 10.9195C65.9329 8.77861 63.2765 7.94841 61.1228 9.06523L64.3776 15.2676ZM65.4967 11.7284C66.1708 13.0129 65.6698 14.5975 64.3776 15.2676L61.1228 9.06523C58.9693 10.182 58.1341 12.823 59.2576 14.9639L65.4967 11.7284ZM65.9896 12.0641C65.9273 12.054 65.816 12.0166 65.6902 11.924C65.6307 11.8803 65.5816 11.834 65.5452 11.7923C65.5079 11.7498 65.4949 11.7249 65.4967 11.7284L59.2576 14.9639C60.2833 16.9186 62.358 18.5659 64.8642 18.9696L65.9896 12.0641ZM66.5661 11.5244C66.2994 11.9373 66.1018 12.0402 66.07 12.0554C66.0459 12.067 66.0355 12.0715 65.9896 12.0641L64.8642 18.9696C67.8534 19.451 70.6965 18.0771 72.4876 15.3039L66.5661 11.5244ZM67.3609 15.1492C66.1346 14.3664 65.7787 12.7436 66.5661 11.5244L72.4876 15.3039C73.8 13.2719 73.2068 10.5671 71.1629 9.26252L67.3609 15.1492ZM71.0072 14.359C70.2199 15.5782 68.5873 15.9319 67.3609 15.1492L71.1629 9.26252C69.1188 7.95793 66.3979 8.54758 65.0857 10.5795L71.0072 14.359ZM65.1455 17.2432C66.0874 17.3949 67.2163 17.327 68.3551 16.7847C69.4731 16.2524 70.3443 15.3854 71.0072 14.359L65.0857 10.5795C64.9574 10.778 64.999 10.6262 65.3153 10.4756C65.6523 10.3151 66.0079 10.2953 66.2709 10.3377L65.1455 17.2432ZM60.8174 14.155C61.6016 15.6496 63.2189 16.9329 65.1455 17.2432L66.2709 10.3377C66.5246 10.3785 66.6697 10.469 66.7345 10.5166C66.7742 10.5458 66.8184 10.5841 66.8662 10.6379C66.912 10.6894 66.983 10.7797 67.0564 10.9195L60.8174 14.155Z" fill="#262626"/>
</g>
</svg>
