<svg width="30" height="30" viewBox="0 0 30 30" fill="none" xmlns="http://www.w3.org/2000/svg">
<mask id="mask0" mask-type="alpha" maskUnits="userSpaceOnUse" x="0" y="0" width="30" height="30">
<path fill-rule="evenodd" clip-rule="evenodd" d="M15 30C23.2843 30 30 23.2843 30 15C30 6.71571 23.2843 0 15 0C6.71571 0 0 6.71571 0 15C0 23.2843 6.71571 30 15 30ZM10.0427 16.5804C9.49543 15.531 8.20115 15.1242 7.15158 15.6715C6.10243 16.2189 5.69571 17.5132 6.24299 18.5625C7.55999 21.0873 10.3804 23.3486 13.6727 23.8819C17.1981 24.4531 20.919 22.9992 23.6601 18.7292C24.2996 17.7333 24.0107 16.4076 23.0147 15.7682C22.0191 15.1288 20.6931 15.4178 20.0541 16.4137C18.1269 19.4154 16.0114 19.9192 14.358 19.6513C12.471 19.3456 10.7683 17.9711 10.0427 16.5804Z" fill="white"/>
</mask>
<g mask="url(#mask0)">
<path fill-rule="evenodd" clip-rule="evenodd" d="M15 30C23.2843 30 30 23.2843 30 15C30 6.71571 23.2843 0 15 0C6.71571 0 0 6.71571 0 15C0 23.2843 6.71571 30 15 30ZM10.0427 16.5804C9.49543 15.531 8.20115 15.1242 7.15158 15.6715C6.10243 16.2189 5.69571 17.5132 6.24299 18.5625C7.55999 21.0873 10.3804 23.3486 13.6727 23.8819C17.1981 24.4531 20.919 22.9992 23.6601 18.7292C24.2996 17.7333 24.0107 16.4076 23.0147 15.7682C22.0191 15.1288 20.6931 15.4178 20.0541 16.4137C18.1269 19.4154 16.0114 19.9192 14.358 19.6513C12.471 19.3456 10.7683 17.9711 10.0427 16.5804Z" fill="#262626"/>
<path d="M7.15159 15.6717L3.18731 8.07211L7.15159 15.6717ZM10.0427 16.5805L2.4433 20.5448L10.0427 16.5805ZM6.24301 18.5626L13.8425 14.5983L6.24301 18.5626ZM13.6727 23.882L12.3017 32.3431L13.6727 23.882ZM23.6602 18.7293L16.4477 14.0984L23.6602 18.7293ZM23.0147 15.7684L27.6459 8.55558L23.0147 15.7684ZM20.0542 16.4138L12.8413 11.7829L20.0542 16.4138ZM14.358 19.6515L12.987 28.1126L14.358 19.6515ZM21.4286 15.0001C21.4286 18.5506 18.5503 21.4287 15 21.4287V38.5716C28.0183 38.5716 38.5714 28.0183 38.5714 15.0001H21.4286ZM15 8.57157C18.5503 8.57157 21.4286 11.4497 21.4286 15.0001H38.5714C38.5714 1.98198 28.0183 -8.57129 15 -8.57129V8.57157ZM8.57145 15.0001C8.57145 11.4497 11.4497 8.57157 15 8.57157V-8.57129C1.98173 -8.57129 -8.57141 1.98198 -8.57141 15.0001H8.57145ZM15 21.4287C11.4497 21.4287 8.57145 18.5506 8.57145 15.0001H-8.57141C-8.57141 28.0183 1.98173 38.5716 15 38.5716V21.4287ZM11.1163 23.2712C7.96844 24.9133 4.08516 23.6927 2.4433 20.5448L17.6422 12.6161C14.9053 7.36973 8.43388 5.3353 3.18731 8.07211L11.1163 23.2712ZM13.8425 14.5983C15.4847 17.7461 14.2642 21.6292 11.1163 23.2712L3.18731 8.07211C-2.05883 10.8089 -4.09327 17.2806 -1.35641 22.527L13.8425 14.5983ZM15.0433 15.4209C14.8916 15.3964 14.6203 15.3045 14.3139 15.0777C14.169 14.9707 14.0495 14.8571 13.9607 14.7549C13.8699 14.6508 13.8382 14.5898 13.8425 14.5983L-1.35641 22.527C1.14216 27.3172 6.19631 31.354 12.3017 32.3431L15.0433 15.4209ZM16.4477 14.0984C15.798 15.1102 15.3167 15.3624 15.2392 15.3997C15.1805 15.428 15.1552 15.439 15.0433 15.4209L12.3017 32.3431C19.5836 33.523 26.5097 30.1561 30.873 23.3602L16.4477 14.0984ZM18.384 22.9812C15.3964 21.063 14.5294 17.086 16.4477 14.0984L30.873 23.3602C34.0702 18.3808 32.625 11.7526 27.6459 8.55558L18.384 22.9812ZM27.2666 21.0448C25.3487 24.0324 21.3716 24.8993 18.384 22.9812L27.6459 8.55558C22.6663 5.35861 16.038 6.80358 12.8413 11.7829L27.2666 21.0448ZM12.987 28.1126C15.2816 28.4843 18.0317 28.3179 20.8059 26.9892C23.5294 25.6847 25.6517 23.56 27.2666 21.0448L12.8413 11.7829C12.5289 12.2694 12.63 11.8975 13.4006 11.5283C14.2217 11.1349 15.0879 11.0866 15.7286 11.1904L12.987 28.1126ZM2.4433 20.5448C4.35387 24.2075 8.29374 27.3523 12.987 28.1126L15.7286 11.1904C16.3466 11.2904 16.7002 11.5121 16.8579 11.6287C16.9547 11.7004 17.0623 11.7943 17.1789 11.926C17.2903 12.0523 17.4634 12.2736 17.6422 12.6161L2.4433 20.5448Z" fill="#262626"/>
</g>
</svg>
