<svg width="84" height="83" viewBox="0 0 84 83" fill="none" xmlns="http://www.w3.org/2000/svg">
<rect width="83.3243" height="83" rx="5" fill="#262626"/>
<mask id="path-2-inside-1" fill="white">
<path fill-rule="evenodd" clip-rule="evenodd" d="M41.2324 70.0004C57.1202 70.0004 69.9999 57.1207 69.9999 41.2329C69.9999 25.345 57.1202 12.4653 41.2324 12.4653C25.3445 12.4653 12.4648 25.345 12.4648 41.2329C12.4648 57.1207 25.3445 70.0004 41.2324 70.0004ZM32.5155 43.8516C31.2383 41.4033 28.2182 40.4539 25.7699 41.7311C23.3216 43.0083 22.3722 46.0284 23.6494 48.4767C26.2981 53.5543 31.939 58.0753 38.5451 59.1455C45.696 60.3039 53.1647 57.3181 58.5916 48.8655C60.0836 46.5418 59.4092 43.4486 57.0855 41.9567C54.7618 40.4648 51.6686 41.1391 50.1767 43.4628C46.6499 48.956 42.9264 49.7249 40.1442 49.2742C36.8172 48.7352 33.7841 46.2834 32.5155 43.8516Z"/>
</mask>
<path fill-rule="evenodd" clip-rule="evenodd" d="M41.2324 70.0004C57.1202 70.0004 69.9999 57.1207 69.9999 41.2329C69.9999 25.345 57.1202 12.4653 41.2324 12.4653C25.3445 12.4653 12.4648 25.345 12.4648 41.2329C12.4648 57.1207 25.3445 70.0004 41.2324 70.0004ZM32.5155 43.8516C31.2383 41.4033 28.2182 40.4539 25.7699 41.7311C23.3216 43.0083 22.3722 46.0284 23.6494 48.4767C26.2981 53.5543 31.939 58.0753 38.5451 59.1455C45.696 60.3039 53.1647 57.3181 58.5916 48.8655C60.0836 46.5418 59.4092 43.4486 57.0855 41.9567C54.7618 40.4648 51.6686 41.1391 50.1767 43.4628C46.6499 48.956 42.9264 49.7249 40.1442 49.2742C36.8172 48.7352 33.7841 46.2834 32.5155 43.8516Z" fill="#F2F2F2"/>
<path d="M25.7699 41.7311L16.5197 23.9988L16.5197 23.9988L25.7699 41.7311ZM32.5155 43.8516L50.2478 34.6015L50.2478 34.6014L32.5155 43.8516ZM23.6494 48.4767L41.3817 39.2265L41.3817 39.2265L23.6494 48.4767ZM38.5451 59.1455L41.7433 39.4029H41.7433L38.5451 59.1455ZM58.5916 48.8655L41.7618 38.0601L41.7618 38.0601L58.5916 48.8655ZM57.0855 41.9567L67.891 25.1269L67.8909 25.1269L57.0855 41.9567ZM50.1767 43.4628L67.0066 54.2682L67.0066 54.2682L50.1767 43.4628ZM40.1442 49.2742L36.9459 69.0168L36.946 69.0168L40.1442 49.2742ZM49.9999 41.2329C49.9999 46.075 46.0745 50.0004 41.2324 50.0004V90.0004C68.1659 90.0004 89.9999 68.1664 89.9999 41.2329H49.9999ZM41.2324 32.4653C46.0745 32.4653 49.9999 36.3907 49.9999 41.2329H89.9999C89.9999 14.2993 68.1659 -7.53467 41.2324 -7.53467V32.4653ZM32.4648 41.2329C32.4648 36.3907 36.3902 32.4653 41.2324 32.4653V-7.53467C14.2988 -7.53467 -7.53516 14.2993 -7.53516 41.2329H32.4648ZM41.2324 50.0004C36.3902 50.0004 32.4648 46.075 32.4648 41.2329H-7.53516C-7.53516 68.1664 14.2988 90.0004 41.2324 90.0004V50.0004ZM35.0201 59.4634C27.6751 63.2949 18.6148 60.4467 14.7832 53.1018L50.2478 34.6014C43.8619 22.3599 28.7613 17.6129 16.5197 23.9988L35.0201 59.4634ZM41.3817 39.2265C45.2132 46.5715 42.365 55.6318 35.0201 59.4634L16.5197 23.9988C4.27815 30.3847 -0.468832 45.4853 5.91709 57.7269L41.3817 39.2265ZM41.7433 39.4029C41.8421 39.4189 41.8576 39.4345 41.7967 39.408C41.7328 39.3801 41.628 39.3242 41.5064 39.2343C41.3831 39.1431 41.2965 39.0566 41.254 39.0078C41.2356 38.9867 41.2384 38.9873 41.2582 39.0161C41.2777 39.0445 41.3222 39.1125 41.3817 39.2265L5.91708 57.7269C11.3229 68.0896 22.1759 76.7545 35.3468 78.8881L41.7433 39.4029ZM41.7618 38.0601C41.2427 38.8686 40.8355 39.2967 40.6273 39.4885C40.4255 39.6743 40.3835 39.6644 40.5292 39.5941C40.6779 39.5224 40.9047 39.445 41.1754 39.4074C41.4396 39.3706 41.6401 39.3862 41.7433 39.4029L35.3468 78.8881C51.2659 81.467 66.2128 74.0138 75.4215 59.6709L41.7618 38.0601ZM46.2801 58.7865C39.309 54.3108 37.2861 45.0313 41.7618 38.0601L75.4215 59.6709C82.8811 48.0523 79.5095 32.5865 67.891 25.1269L46.2801 58.7865ZM67.0066 54.2682C62.5308 61.2394 53.2513 63.2623 46.2801 58.7865L67.8909 25.1269C56.2724 17.6673 40.8065 21.0388 33.3469 32.6574L67.0066 54.2682ZM36.946 69.0168C41.6589 69.7803 47.5214 69.505 53.5117 66.6395C59.3553 63.8442 63.7542 59.3339 67.0066 54.2682L33.3469 32.6574C33.0724 33.0849 33.8461 31.7057 36.2507 30.5554C38.802 29.335 41.4116 29.2188 43.3424 29.5316L36.946 69.0168ZM14.7832 53.1018C18.8187 60.8376 27.0741 67.4176 36.9459 69.0168L43.3425 29.5316C45.3529 29.8573 46.6799 30.6236 47.4399 31.1848C48.1422 31.7036 49.259 32.7059 50.2478 34.6015L14.7832 53.1018Z" fill="#F2F2F2" mask="url(#path-2-inside-1)"/>
</svg>
