<svg width="133" height="112" viewBox="0 0 133 112" fill="none" xmlns="http://www.w3.org/2000/svg">
<path d="M6.97763 79.4684C-3.99569 91.1007 0.330985 105.929 4.12495 111.89H83.6352C102.574 111.89 96.2503 82.121 83.6352 82.121C78.4711 82.121 75.0745 85.0684 62.9143 61.8823C50.7542 38.6961 28.8659 50.6822 26.2393 66.2051C23.6127 81.728 20.6943 64.9279 6.97763 79.4684Z" fill="#FFCF5B" fill-opacity="0.7"/>
<path d="M71.1726 30.99C71.8681 47.1557 68.275 60.8032 64.3963 66.3832C46.1209 85.7197 53.2306 111.752 60.7001 111.752C80.2145 111.752 101.912 112.062 119.291 111.752C134.623 111.479 136.944 49.297 125.513 18.55C114.082 -12.1969 69.7352 -2.42163 71.1726 30.99Z" fill="#FF82B8" fill-opacity="0.7"/>
<circle cx="44.4187" cy="59.0376" r="1.12452" fill="#262626"/>
<circle cx="77.0293" cy="35.9849" r="1.12452" fill="#262626"/>
<circle cx="82.0903" cy="35.9849" r="1.12452" fill="#262626"/>
<circle cx="50.0413" cy="59.0376" r="1.12452" fill="#262626"/>
<path d="M41.6069 61.2866C41.6069 62.9265 43.0347 65.2224 47.1379 65.2224C51.2412 65.2224 52.8521 63.5825 52.8521 61.2866" stroke="#262626" stroke-linecap="round"/>
<path d="M74.2185 38.2334C74.2185 39.8733 75.5749 42.1692 79.473 42.1692C83.371 42.1692 84.9015 40.5293 84.9015 38.2334" stroke="#262626" stroke-linecap="round"/>
</svg>
