<svg width="408" height="425" viewBox="0 0 408 425" fill="none" xmlns="http://www.w3.org/2000/svg">
<path d="M401.528 330.454L153.713 187.378L1.21123 275.425" stroke="black" stroke-width="2"/>
<rect x="-5.96046e-08" y="1" width="98.3734" height="51.7085" rx="6.69264" transform="matrix(0.866025 0.5 -0.866025 0.5 136.661 291.113)" stroke="black" stroke-width="2"/>
<rect x="-5.96046e-08" y="1" width="15.6094" height="11.207" rx="5.60351" transform="matrix(0.866025 0.5 -0.866025 0.5 132.467 213.852)" stroke="black" stroke-width="2"/>
<rect x="-5.96046e-08" y="1" width="15.6094" height="11.207" rx="5.60351" transform="matrix(0.866025 0.5 -0.866025 0.5 147.717 205.047)" stroke="black" stroke-width="2"/>
<rect x="-5.96046e-08" y="1" width="15.6094" height="11.207" rx="5.60351" transform="matrix(0.866025 0.5 -0.866025 0.5 208.717 257.875)" stroke="black" stroke-width="2"/>
<rect x="-5.96046e-08" y="1" width="15.6094" height="11.207" rx="5.60351" transform="matrix(0.866025 0.5 -0.866025 0.5 223.967 249.07)" stroke="black" stroke-width="2"/>
<rect x="-5.96046e-08" y="1" width="15.6094" height="11.207" rx="5.60351" transform="matrix(0.866025 0.5 -0.866025 0.5 284.968 301.899)" stroke="black" stroke-width="2"/>
<rect x="-5.96046e-08" y="1" width="15.6094" height="11.207" rx="5.60351" transform="matrix(0.866025 0.5 -0.866025 0.5 300.219 293.094)" stroke="black" stroke-width="2"/>
<rect x="-5.96046e-08" y="1" width="15.6094" height="11.207" rx="5.60351" transform="matrix(0.866025 0.5 -0.866025 0.5 101.966 231.461)" stroke="black" stroke-width="2"/>
<rect x="-5.96046e-08" y="1" width="15.6094" height="11.207" rx="5.60351" transform="matrix(0.866025 0.5 -0.866025 0.5 178.217 275.485)" stroke="black" stroke-width="2"/>
<rect x="-5.96046e-08" y="1" width="15.6094" height="11.207" rx="5.60351" transform="matrix(0.866025 0.5 -0.866025 0.5 254.468 319.508)" stroke="black" stroke-width="2"/>
<rect x="-5.96046e-08" y="1" width="37.6211" height="11.207" rx="5.60351" transform="matrix(0.866025 0.5 -0.866025 0.5 117.217 222.656)" stroke="black" stroke-width="2"/>
<rect x="-5.96046e-08" y="1" width="15.6094" height="11.207" rx="5.60351" transform="matrix(0.866025 0.5 -0.866025 0.5 193.467 266.68)" stroke="black" stroke-width="2"/>
<rect x="-5.96046e-08" y="1" width="15.6094" height="11.207" rx="5.60351" transform="matrix(0.866025 0.5 -0.866025 0.5 269.718 310.704)" stroke="black" stroke-width="2"/>
<rect x="-5.96046e-08" y="1" width="15.6094" height="11.207" rx="5.60351" transform="matrix(0.866025 0.5 -0.866025 0.5 86.7162 240.266)" stroke="black" stroke-width="2"/>
<rect x="-5.96046e-08" y="1" width="81.6445" height="11.207" rx="5.60351" transform="matrix(0.866025 0.5 -0.866025 0.5 162.967 284.29)" stroke="black" stroke-width="2"/>
<rect x="-5.96046e-08" y="1" width="15.6094" height="11.207" rx="5.60351" transform="matrix(0.866025 0.5 -0.866025 0.5 239.218 328.312)" stroke="black" stroke-width="2"/>
<rect x="-5.96046e-08" y="1" width="15.6094" height="11.207" rx="5.60351" transform="matrix(0.866025 0.5 -0.866025 0.5 170.592 235.864)" stroke="black" stroke-width="2"/>
<rect x="-5.96046e-08" y="1" width="15.6094" height="11.207" rx="5.60351" transform="matrix(0.866025 0.5 -0.866025 0.5 185.842 227.059)" stroke="black" stroke-width="2"/>
<rect x="-5.96046e-08" y="1" width="15.6094" height="11.207" rx="5.60351" transform="matrix(0.866025 0.5 -0.866025 0.5 246.843 279.887)" stroke="black" stroke-width="2"/>
<rect x="-5.96046e-08" y="1" width="15.6094" height="11.207" rx="5.60351" transform="matrix(0.866025 0.5 -0.866025 0.5 262.093 271.082)" stroke="black" stroke-width="2"/>
<rect x="-5.96046e-08" y="1" width="15.6094" height="11.207" rx="5.60351" transform="matrix(0.866025 0.5 -0.866025 0.5 323.094 323.911)" stroke="black" stroke-width="2"/>
<rect x="-5.96046e-08" y="1" width="15.6094" height="11.207" rx="5.60351" transform="matrix(0.866025 0.5 -0.866025 0.5 338.344 315.106)" stroke="black" stroke-width="2"/>
<rect x="-5.96046e-08" y="1" width="15.6094" height="11.207" rx="5.60351" transform="matrix(0.866025 0.5 -0.866025 0.5 140.092 253.473)" stroke="black" stroke-width="2"/>
<rect x="-5.96046e-08" y="1" width="15.6094" height="11.207" rx="5.60351" transform="matrix(0.866025 0.5 -0.866025 0.5 216.342 297.496)" stroke="black" stroke-width="2"/>
<rect x="-5.96046e-08" y="1" width="15.6094" height="11.207" rx="5.60351" transform="matrix(0.866025 0.5 -0.866025 0.5 292.593 341.52)" stroke="black" stroke-width="2"/>
<rect x="-5.96046e-08" y="1" width="15.6094" height="11.207" rx="5.60351" transform="matrix(0.866025 0.5 -0.866025 0.5 155.342 244.668)" stroke="black" stroke-width="2"/>
<rect x="-5.96046e-08" y="1" width="15.6094" height="11.207" rx="5.60351" transform="matrix(0.866025 0.5 -0.866025 0.5 231.592 288.692)" stroke="black" stroke-width="2"/>
<rect x="-5.96046e-08" y="1" width="15.6094" height="11.207" rx="5.60351" transform="matrix(0.866025 0.5 -0.866025 0.5 124.841 262.277)" stroke="black" stroke-width="2"/>
<rect x="-5.96046e-08" y="1" width="15.6094" height="11.207" rx="5.60351" transform="matrix(0.866025 0.5 -0.866025 0.5 277.343 350.325)" stroke="black" stroke-width="2"/>
<rect x="-5.96046e-08" y="1" width="15.6094" height="11.207" rx="5.60351" transform="matrix(0.866025 0.5 -0.866025 0.5 151.53 224.858)" stroke="black" stroke-width="2"/>
<rect x="-5.96046e-08" y="1" width="15.6094" height="11.207" rx="5.60351" transform="matrix(0.866025 0.5 -0.866025 0.5 166.779 216.054)" stroke="black" stroke-width="2"/>
<rect x="-5.96046e-08" y="1" width="15.6094" height="11.207" rx="5.60351" transform="matrix(0.866025 0.5 -0.866025 0.5 227.78 268.881)" stroke="black" stroke-width="2"/>
<rect x="-5.96046e-08" y="1" width="15.6094" height="11.207" rx="5.60351" transform="matrix(0.866025 0.5 -0.866025 0.5 243.03 260.077)" stroke="black" stroke-width="2"/>
<rect x="-5.96046e-08" y="1" width="15.6094" height="11.207" rx="5.60351" transform="matrix(0.866025 0.5 -0.866025 0.5 304.03 312.904)" stroke="black" stroke-width="2"/>
<rect x="-5.96046e-08" y="1" width="15.6094" height="11.207" rx="5.60351" transform="matrix(0.866025 0.5 -0.866025 0.5 319.281 304.1)" stroke="black" stroke-width="2"/>
<rect x="-5.96046e-08" y="1" width="15.6094" height="11.207" rx="5.60351" transform="matrix(0.866025 0.5 -0.866025 0.5 121.029 242.467)" stroke="black" stroke-width="2"/>
<rect x="-5.96046e-08" y="1" width="15.6094" height="11.207" rx="5.60351" transform="matrix(0.866025 0.5 -0.866025 0.5 197.28 286.49)" stroke="black" stroke-width="2"/>
<rect x="-5.96046e-08" y="1" width="15.6094" height="11.207" rx="5.60351" transform="matrix(0.866025 0.5 -0.866025 0.5 273.531 330.514)" stroke="black" stroke-width="2"/>
<rect x="-5.96046e-08" y="1" width="15.6094" height="11.207" rx="5.60351" transform="matrix(0.866025 0.5 -0.866025 0.5 212.53 277.686)" stroke="black" stroke-width="2"/>
<rect x="-5.96046e-08" y="1" width="15.6094" height="11.207" rx="5.60351" transform="matrix(0.866025 0.5 -0.866025 0.5 288.781 321.709)" stroke="black" stroke-width="2"/>
<rect x="-5.96046e-08" y="1" width="15.6094" height="11.207" rx="5.60351" transform="matrix(0.866025 0.5 -0.866025 0.5 105.779 251.272)" stroke="black" stroke-width="2"/>
<rect x="-5.96046e-08" y="1" width="15.6094" height="11.207" rx="5.60351" transform="matrix(0.866025 0.5 -0.866025 0.5 258.28 339.319)" stroke="black" stroke-width="2"/>
<rect x="-5.96046e-08" y="1" width="15.6094" height="11.207" rx="5.60351" transform="matrix(0.866025 0.5 -0.866025 0.5 189.655 246.87)" stroke="black" stroke-width="2"/>
<rect x="-5.96046e-08" y="1" width="15.6094" height="11.207" rx="5.60351" transform="matrix(0.866025 0.5 -0.866025 0.5 204.905 238.065)" stroke="black" stroke-width="2"/>
<rect x="-5.96046e-08" y="1" width="15.6094" height="11.207" rx="5.60351" transform="matrix(0.866025 0.5 -0.866025 0.5 265.905 290.893)" stroke="black" stroke-width="2"/>
<rect x="-5.96046e-08" y="1" width="15.6094" height="11.207" rx="5.60351" transform="matrix(0.866025 0.5 -0.866025 0.5 281.156 282.088)" stroke="black" stroke-width="2"/>
<rect x="-5.96046e-08" y="1" width="15.6094" height="11.207" rx="5.60351" transform="matrix(0.866025 0.5 -0.866025 0.5 342.156 334.917)" stroke="black" stroke-width="2"/>
<rect x="-5.96046e-08" y="1" width="15.6094" height="11.207" rx="5.60351" transform="matrix(0.866025 0.5 -0.866025 0.5 357.406 326.111)" stroke="black" stroke-width="2"/>
<rect x="-5.96046e-08" y="1" width="15.6094" height="11.207" rx="5.60351" transform="matrix(0.866025 0.5 -0.866025 0.5 159.155 264.479)" stroke="black" stroke-width="2"/>
<rect x="-5.96046e-08" y="1" width="15.6094" height="11.207" rx="5.60351" transform="matrix(0.866025 0.5 -0.866025 0.5 235.405 308.502)" stroke="black" stroke-width="2"/>
<rect x="-5.96046e-08" y="1" width="15.6094" height="11.207" rx="5.60351" transform="matrix(0.866025 0.5 -0.866025 0.5 311.656 352.526)" stroke="black" stroke-width="2"/>
<rect x="-5.96046e-08" y="1" width="15.6094" height="11.207" rx="5.60351" transform="matrix(0.866025 0.5 -0.866025 0.5 174.405 255.674)" stroke="black" stroke-width="2"/>
<rect x="-5.96046e-08" y="1" width="15.6094" height="11.207" rx="5.60351" transform="matrix(0.866025 0.5 -0.866025 0.5 250.655 299.697)" stroke="black" stroke-width="2"/>
<rect x="-5.96046e-08" y="1" width="37.6211" height="11.207" rx="5.60351" transform="matrix(0.866025 0.5 -0.866025 0.5 307.844 332.715)" stroke="black" stroke-width="2"/>
<rect x="-5.96046e-08" y="1" width="15.6094" height="11.207" rx="5.60351" transform="matrix(0.866025 0.5 -0.866025 0.5 143.904 273.284)" stroke="black" stroke-width="2"/>
<rect x="-5.96046e-08" y="1" width="15.6094" height="11.207" rx="5.60351" transform="matrix(0.866025 0.5 -0.866025 0.5 296.406 361.33)" stroke="black" stroke-width="2"/>
<path d="M154.414 3.80029L154.414 187.818" stroke="black" stroke-width="2"/>
<rect x="0.866025" y="1.5" width="270.945" height="162.648" rx="6.69264" transform="matrix(0.866025 0.5 -2.20305e-08 1 160.248 13.2721)" stroke="black" stroke-width="2"/>
<rect x="0.866025" y="0.5" width="181.51" height="5.04374" transform="matrix(0.866025 -0.5 2.20305e-08 1 249.179 418.389)" stroke="black" stroke-width="2"/>
<rect x="0.866025" y="1.5" width="284.194" height="5.04374" transform="matrix(0.866025 0.5 -2.20305e-08 1 1.32721 274.426)" stroke="black" stroke-width="2"/>
<path d="M155.343 3.65117L160.284 1.30277L406.239 143.305L401.064 146.105L155.343 3.65117Z" stroke="black" stroke-width="2"/>
<path d="M401.436 329.017L401.436 147.246L407.121 144.711L407.121 325.737L401.436 329.017Z" stroke="black" stroke-width="2"/>
</svg>
