<svg width="95" height="39" viewBox="0 0 95 39" fill="none" xmlns="http://www.w3.org/2000/svg">
<path d="M16.0656 6.55509C17.4871 6.55509 18.613 6.97482 19.4434 7.81429C20.2878 8.63976 20.71 9.88496 20.71 11.5499V18.0137H17.4167V12.0536C17.4167 11.1581 17.2267 10.4936 16.8467 10.0598C16.4808 9.61213 15.953 9.38828 15.2634 9.38828C14.4893 9.38828 13.8771 9.64011 13.4267 10.1438C12.9763 10.6335 12.7511 11.368 12.7511 12.3474V18.0137H9.4578V12.0536C9.4578 10.2767 8.74002 9.38828 7.30446 9.38828C6.54446 9.38828 5.93928 9.64011 5.48891 10.1438C5.03854 10.6335 4.81335 11.368 4.81335 12.3474V18.0137H1.52002V6.72298H4.66558V8.02415C5.0878 7.54846 5.6015 7.18469 6.20669 6.93285C6.82595 6.68101 7.5015 6.55509 8.23335 6.55509C9.03557 6.55509 9.76039 6.71599 10.4078 7.03778C11.0552 7.34559 11.5759 7.80029 11.97 8.40191C12.4345 7.81429 13.0185 7.35958 13.7222 7.03778C14.44 6.71599 15.2211 6.55509 16.0656 6.55509ZM34.9113 12.4103C34.9113 12.4523 34.8902 12.7461 34.848 13.2918H26.2557C26.4105 13.9913 26.7765 14.544 27.3535 14.9497C27.9305 15.3555 28.6483 15.5583 29.5068 15.5583C30.098 15.5583 30.6187 15.4744 31.0691 15.3065C31.5335 15.1246 31.9628 14.8448 32.3568 14.467L34.1091 16.3558C33.0394 17.573 31.4772 18.1816 29.4224 18.1816C28.1417 18.1816 27.0087 17.9368 26.0235 17.4471C25.0383 16.9434 24.2783 16.2509 23.7435 15.3694C23.2087 14.488 22.9413 13.4876 22.9413 12.3684C22.9413 11.2631 23.2017 10.2697 23.7224 9.38828C24.2572 8.49285 24.982 7.80029 25.8968 7.31061C26.8257 6.80693 27.8602 6.55509 29.0002 6.55509C30.112 6.55509 31.1183 6.79294 32.0191 7.26864C32.9198 7.74433 33.6235 8.42989 34.1302 9.32532C34.6509 10.2068 34.9113 11.2351 34.9113 12.4103ZM29.0213 9.0315C28.2754 9.0315 27.6491 9.24137 27.1424 9.6611C26.6357 10.0808 26.3261 10.6545 26.2135 11.382H31.808C31.6954 10.6685 31.3857 10.1018 30.8791 9.68209C30.3724 9.24837 29.7531 9.0315 29.0213 9.0315ZM44.0072 6.55509C45.4146 6.55509 46.5476 6.97482 47.4061 7.81429C48.2787 8.65375 48.715 9.89895 48.715 11.5499V18.0137H45.4216V12.0536C45.4216 11.1581 45.2246 10.4936 44.8305 10.0598C44.4364 9.61213 43.8664 9.38828 43.1205 9.38828C42.2901 9.38828 41.6287 9.64711 41.1361 10.1648C40.6435 10.6685 40.3972 11.424 40.3972 12.4313V18.0137H37.1039V6.72298H40.2494V8.04514C40.6857 7.56944 41.2276 7.20567 41.875 6.95384C42.5224 6.68801 43.2331 6.55509 44.0072 6.55509ZM59.0256 17.4681C58.7019 17.7059 58.3008 17.8878 57.8223 18.0137C57.3579 18.1257 56.8653 18.1816 56.3445 18.1816C54.9934 18.1816 53.9449 17.8389 53.199 17.1533C52.4671 16.4677 52.1012 15.4604 52.1012 14.1312V9.49321H50.349V6.97482H52.1012V4.22559H55.3945V6.97482H58.2234V9.49321H55.3945V14.0893C55.3945 14.565 55.5141 14.9357 55.7534 15.2015C56.0067 15.4534 56.3586 15.5793 56.809 15.5793C57.3297 15.5793 57.773 15.4394 58.139 15.1596L59.0256 17.4681Z" fill="white"/>
<path d="M30.4071 36.1943C29.1967 36.1943 28.106 35.9495 27.1348 35.4598C26.1778 34.9561 25.4248 34.2636 24.876 33.3821C24.3411 32.5007 24.0737 31.5003 24.0737 30.3811C24.0737 29.2618 24.3411 28.2614 24.876 27.38C25.4248 26.4985 26.1778 25.813 27.1348 25.3233C28.106 24.8196 29.1967 24.5678 30.4071 24.5678C31.6034 24.5678 32.6448 24.8196 33.5315 25.3233C34.4322 25.813 35.0867 26.5195 35.4948 27.4429L32.9404 28.8071C32.3493 27.7717 31.4978 27.2541 30.386 27.2541C29.5274 27.2541 28.8167 27.5339 28.2537 28.0935C27.6908 28.6532 27.4093 29.4157 27.4093 30.3811C27.4093 31.3464 27.6908 32.109 28.2537 32.6686C28.8167 33.2282 29.5274 33.5081 30.386 33.5081C31.5119 33.5081 32.3634 32.9904 32.9404 31.9551L35.4948 33.3402C35.0867 34.2356 34.4322 34.9351 33.5315 35.4388C32.6448 35.9425 31.6034 36.1943 30.4071 36.1943ZM48.3723 30.423C48.3723 30.465 48.3512 30.7588 48.3089 31.3045H39.7167C39.8715 32.004 40.2375 32.5567 40.8145 32.9624C41.3915 33.3681 42.1093 33.571 42.9678 33.571C43.5589 33.571 44.0797 33.4871 44.53 33.3192C44.9945 33.1373 45.4237 32.8575 45.8178 32.4797L47.57 34.3685C46.5004 35.5857 44.9382 36.1943 42.8834 36.1943C41.6026 36.1943 40.4697 35.9495 39.4845 35.4598C38.4993 34.9561 37.7393 34.2636 37.2045 33.3821C36.6697 32.5007 36.4023 31.5003 36.4023 30.3811C36.4023 29.2758 36.6626 28.2824 37.1834 27.401C37.7182 26.5055 38.443 25.813 39.3578 25.3233C40.2867 24.8196 41.3212 24.5678 42.4612 24.5678C43.573 24.5678 44.5793 24.8056 45.48 25.2813C46.3808 25.757 47.0845 26.4426 47.5912 27.338C48.1119 28.2194 48.3723 29.2478 48.3723 30.423ZM42.4823 27.0442C41.7363 27.0442 41.11 27.2541 40.6034 27.6738C40.0967 28.0935 39.7871 28.6672 39.6745 29.3947H45.2689C45.1563 28.6812 44.8467 28.1145 44.34 27.6948C43.8334 27.2611 43.2141 27.0442 42.4823 27.0442ZM57.4682 24.5678C58.8756 24.5678 60.0085 24.9875 60.867 25.827C61.7396 26.6664 62.1759 27.9116 62.1759 29.5626V36.0264H58.8826V30.0663C58.8826 29.1708 58.6856 28.5063 58.2915 28.0725C57.8974 27.6248 57.3274 27.401 56.5815 27.401C55.7511 27.401 55.0896 27.6598 54.597 28.1775C54.1045 28.6811 53.8582 29.4367 53.8582 30.444V36.0264H50.5648V24.7357H53.7104V26.0578C54.1467 25.5821 54.6885 25.2184 55.3359 24.9665C55.9833 24.7007 56.6941 24.5678 57.4682 24.5678ZM72.4868 35.4808C72.1631 35.7186 71.762 35.9005 71.2834 36.0264C70.819 36.1384 70.3264 36.1943 69.8057 36.1943C68.4546 36.1943 67.406 35.8516 66.6601 35.166C65.9283 34.4804 65.5623 33.4731 65.5623 32.1439V27.5059H63.8101V24.9875H65.5623V22.2383H68.8557V24.9875H71.6846V27.5059H68.8557V32.102C68.8557 32.5777 68.9753 32.9484 69.2146 33.2142C69.4679 33.4661 69.8197 33.592 70.2701 33.592C70.7909 33.592 71.2342 33.4521 71.6001 33.1723L72.4868 35.4808ZM85.1105 30.423C85.1105 30.465 85.0894 30.7588 85.0472 31.3045H76.455C76.6098 32.004 76.9757 32.5567 77.5527 32.9624C78.1298 33.3681 78.8476 33.571 79.7061 33.571C80.2972 33.571 80.8179 33.4871 81.2683 33.3192C81.7327 33.1373 82.162 32.8575 82.5561 32.4797L84.3083 34.3685C83.2387 35.5857 81.6764 36.1943 79.6216 36.1943C78.3409 36.1943 77.2079 35.9495 76.2227 35.4598C75.2376 34.9561 74.4776 34.2636 73.9427 33.3821C73.4079 32.5007 73.1405 31.5003 73.1405 30.3811C73.1405 29.2758 73.4009 28.2824 73.9216 27.401C74.4564 26.5055 75.1813 25.813 76.0961 25.3233C77.025 24.8196 78.0594 24.5678 79.1994 24.5678C80.3113 24.5678 81.3176 24.8056 82.2183 25.2813C83.119 25.757 83.8227 26.4426 84.3294 27.338C84.8501 28.2194 85.1105 29.2478 85.1105 30.423ZM79.2205 27.0442C78.4746 27.0442 77.8483 27.2541 77.3416 27.6738C76.835 28.0935 76.5253 28.6672 76.4127 29.3947H82.0072C81.8946 28.6812 81.585 28.1145 81.0783 27.6948C80.5716 27.2611 79.9524 27.0442 79.2205 27.0442ZM90.4486 26.2257C90.8427 25.6801 91.3705 25.2673 92.032 24.9875C92.7075 24.7077 93.4816 24.5678 94.3542 24.5678V27.5898C93.9883 27.5619 93.742 27.5479 93.6153 27.5479C92.6723 27.5479 91.9334 27.8137 91.3986 28.3454C90.8638 28.863 90.5964 29.6465 90.5964 30.6959V36.0264H87.3031V24.7357H90.4486V26.2257Z" fill="white"/>
<path d="M76.7945 8.21262C77.1886 7.66697 77.7163 7.25424 78.3778 6.97442C79.0534 6.6946 79.8274 6.55469 80.7 6.55469V9.57675C80.3341 9.54877 80.0878 9.53478 79.9611 9.53478C79.0182 9.53478 78.2793 9.80061 77.7445 10.3323C77.2097 10.8499 76.9423 11.6334 76.9423 12.6828V18.0133H73.6489V6.72258H76.7945V8.21262Z" fill="white"/>
<mask id="mask0" mask-type="alpha" maskUnits="userSpaceOnUse" x="59" y="5" width="14" height="14">
<path fill-rule="evenodd" clip-rule="evenodd" d="M65.9719 18.0136C69.3725 18.0136 72.1293 15.2731 72.1293 11.8926C72.1293 8.51198 69.3725 5.77148 65.9719 5.77148C62.5712 5.77148 59.8145 8.51198 59.8145 11.8926C59.8145 15.2731 62.5712 18.0136 65.9719 18.0136ZM63.9369 12.5375C63.7123 12.1093 63.181 11.9432 62.7501 12.1666C62.3195 12.39 62.1525 12.9181 62.3772 13.3463C62.9178 14.3766 64.0756 15.2994 65.427 15.517C66.8742 15.7501 68.4016 15.1568 69.5268 13.4143C69.7893 13.0079 69.6707 12.467 69.2619 12.206C68.8532 11.9451 68.3089 12.0631 68.0466 12.4694C67.2554 13.6944 66.3871 13.8999 65.7083 13.7906C64.9337 13.6659 64.2348 13.105 63.9369 12.5375Z" fill="white"/>
</mask>
<g mask="url(#mask0)">
<path fill-rule="evenodd" clip-rule="evenodd" d="M65.9719 18.0136C69.3725 18.0136 72.1293 15.2731 72.1293 11.8926C72.1293 8.51198 69.3725 5.77148 65.9719 5.77148C62.5712 5.77148 59.8145 8.51198 59.8145 11.8926C59.8145 15.2731 62.5712 18.0136 65.9719 18.0136ZM63.9369 12.5375C63.7123 12.1093 63.181 11.9432 62.7501 12.1666C62.3195 12.39 62.1525 12.9181 62.3772 13.3463C62.9178 14.3766 64.0756 15.2994 65.427 15.517C66.8742 15.7501 68.4016 15.1568 69.5268 13.4143C69.7893 13.0079 69.6707 12.467 69.2619 12.206C68.8532 11.9451 68.3089 12.0631 68.0466 12.4694C67.2554 13.6944 66.3871 13.8999 65.7083 13.7906C64.9337 13.6659 64.2348 13.105 63.9369 12.5375Z" fill="white"/>
<path d="M62.7501 12.1663L61.1228 9.06514L62.7501 12.1663ZM63.9369 12.5372L60.8174 14.1549L63.9369 12.5372ZM62.3771 13.346L65.4967 11.7283L62.3771 13.346ZM65.427 15.5167L64.8642 18.9695L65.427 15.5167ZM69.5268 13.414L66.5661 11.5243L69.5268 13.414ZM69.2618 12.2058L71.1629 9.26243L69.2618 12.2058ZM68.0465 12.4692L65.0857 10.5794L68.0465 12.4692ZM65.7083 13.7903L65.1455 17.2431L65.7083 13.7903ZM68.6107 11.8923C68.6107 13.3411 67.4292 14.5156 65.9718 14.5156V21.5111C71.3158 21.5111 75.6478 17.2046 75.6478 11.8923H68.6107ZM65.9718 9.26895C67.4292 9.26895 68.6107 10.4434 68.6107 11.8923H75.6478C75.6478 6.57993 71.3158 2.27344 65.9718 2.27344V9.26895ZM63.3329 11.8923C63.3329 10.4434 64.5145 9.26895 65.9718 9.26895V2.27344C60.6279 2.27344 56.2959 6.57993 56.2959 11.8923H63.3329ZM65.9718 14.5156C64.5145 14.5156 63.3329 13.3411 63.3329 11.8923H56.2959C56.2959 17.2046 60.6279 21.5111 65.9718 21.5111V14.5156ZM64.3776 15.2675C63.0854 15.9376 61.4913 15.4395 60.8174 14.1549L67.0564 10.9194C65.9329 8.77851 63.2765 7.94832 61.1228 9.06514L64.3776 15.2675ZM65.4967 11.7283C66.1708 13.0128 65.6698 14.5974 64.3776 15.2675L61.1228 9.06514C58.9693 10.182 58.1341 12.8229 59.2576 14.9638L65.4967 11.7283ZM65.9896 12.064C65.9273 12.054 65.816 12.0165 65.6902 11.9239C65.6307 11.8802 65.5816 11.8339 65.5452 11.7922C65.5079 11.7497 65.4949 11.7248 65.4967 11.7283L59.2576 14.9638C60.2833 16.9185 62.358 18.5658 64.8642 18.9695L65.9896 12.064ZM66.5661 11.5243C66.2994 11.9372 66.1018 12.0401 66.07 12.0553C66.0459 12.0669 66.0355 12.0714 65.9896 12.064L64.8642 18.9695C67.8534 19.4509 70.6965 18.077 72.4876 15.3038L66.5661 11.5243ZM67.3609 15.1491C66.1346 14.3663 65.7787 12.7435 66.5661 11.5243L72.4876 15.3038C73.8 13.2718 73.2068 10.567 71.1629 9.26243L67.3609 15.1491ZM71.0072 14.3589C70.2199 15.5781 68.5873 15.9318 67.3609 15.1491L71.1629 9.26243C69.1188 7.95784 66.3979 8.54749 65.0857 10.5794L71.0072 14.3589ZM65.1455 17.2431C66.0874 17.3948 67.2163 17.3269 68.3551 16.7847C69.4731 16.2523 70.3443 15.3853 71.0072 14.3589L65.0857 10.5794C64.9574 10.7779 64.999 10.6262 65.3153 10.4755C65.6523 10.315 66.0079 10.2952 66.2709 10.3376L65.1455 17.2431ZM60.8174 14.1549C61.6016 15.6495 63.2189 16.9328 65.1455 17.2431L66.2709 10.3376C66.5246 10.3784 66.6697 10.4689 66.7345 10.5165C66.7742 10.5457 66.8184 10.584 66.8662 10.6378C66.912 10.6894 66.983 10.7797 67.0564 10.9194L60.8174 14.1549Z" fill="white"/>
</g>
</svg>
